HIERARCHY
ROOT Hips
{
	OFFSET 0.000000 0.000000 0.000000
	CHANNELS 6 Xposition Yposition Zposition Xrotation Yrotation Zrotation
	JOINT LeftUpLeg_virtual
	{
		OFFSET 0.000000 0.000000 0.000000
		CHANNELS 3 Xrotation Yrotation Zrotation
		JOINT LeftUpLeg
		{
			OFFSET 10.205400 -3.823500 0.155100
			CHANNELS 3 Xrotation Yrotation Zrotation
			JOINT LeftLeg
			{
				OFFSET 0.708757 -12.982077 0.567790
				CHANNELS 3 Xrotation Yrotation Zrotation
				JOINT LeftFoot
				{
					OFFSET -0.708756 -10.717838 -2.184338
					CHANNELS 3 Xrotation Yrotation Zrotation
					JOINT LeftToeBase
					{
						OFFSET 0.108149 -7.191104 7.560241
						CHANNELS 3 Xrotation Yrotation Zrotation
						JOINT LeftToe_End
						{
							OFFSET 0.070230 0.081724 4.490308
							CHANNELS 3 Xrotation Yrotation Zrotation
							End Site
							{
								OFFSET 0 0 0
							}
						}
					}
				}
			}
		}
	}
	JOINT RightUpLeg_virtual
	{
		OFFSET 0.000000 0.000000 0.000000
		CHANNELS 3 Xrotation Yrotation Zrotation
		JOINT RightUpLeg
		{
			OFFSET -10.205400 -3.823500 0.005500
			CHANNELS 3 Xrotation Yrotation Zrotation
			JOINT RightLeg
			{
				OFFSET -0.708756 -12.982134 0.610632
				CHANNELS 3 Xrotation Yrotation Zrotation
				JOINT RightFoot
				{
					OFFSET 0.708754 -10.717769 -1.945823
					CHANNELS 3 Xrotation Yrotation Zrotation
					JOINT RightToeBase
					{
						OFFSET -0.108140 -7.191069 7.372968
						CHANNELS 3 Xrotation Yrotation Zrotation
						JOINT RightToe_End
						{
							OFFSET -0.070227 0.081735 4.479403
							CHANNELS 3 Xrotation Yrotation Zrotation
							End Site
							{
								OFFSET 0 0 0
							}
						}
					}
				}
			}
		}
	}
	JOINT Spine_virtual
	{
		OFFSET 0.000000 0.000000 0.000000
		CHANNELS 3 Xrotation Yrotation Zrotation
		JOINT Spine
		{
			OFFSET 0.000000 6.876099 0.125700
			CHANNELS 3 Xrotation Yrotation Zrotation
			JOINT Spine1
			{
				OFFSET 0.000000 5.730043 0.104720
				CHANNELS 3 Xrotation Yrotation Zrotation
				JOINT Spine1_split
				{
					OFFSET 0.000000 5.730043 0.104720
					CHANNELS 3 Xrotation Yrotation Zrotation
					JOINT Spine2
					{
						OFFSET 0.000000 5.730043 0.104720
						CHANNELS 3 Xrotation Yrotation Zrotation
						JOINT Neck_virtual
						{
							OFFSET 0.000000 0.000000 0.000000
							CHANNELS 3 Xrotation Yrotation Zrotation
							JOINT Neck
							{
								OFFSET 0.000000 10.314075 0.188496
								CHANNELS 3 Xrotation Yrotation Zrotation
								JOINT Head
								{
									OFFSET 0.000000 7.643700 -2.377400
									CHANNELS 3 Xrotation Yrotation Zrotation
									JOINT HeadTop_End
									{
										OFFSET 0.000000 43.788605 -13.619600
										CHANNELS 3 Xrotation Yrotation Zrotation
										End Site
										{
											OFFSET 0 0 0
										}
									}
								}
							}
						}
						JOINT LeftShoulder_virtual
						{
							OFFSET 0.000000 0.000000 0.000000
							CHANNELS 3 Xrotation Yrotation Zrotation
							JOINT LeftShoulder
							{
								OFFSET 2.196100 4.412489 0.087492
								CHANNELS 3 Xrotation Yrotation Zrotation
								JOINT LeftShoulder_split
								{
									OFFSET 2.196100 4.412489 0.087492
									CHANNELS 3 Xrotation Yrotation Zrotation
									JOINT LeftArm
									{
										OFFSET 8.771219 -2.981674 -0.026999
										CHANNELS 3 Xrotation Yrotation Zrotation
										JOINT LeftForeArm
										{
											OFFSET 8.512804 0.000000 -0.000000
											CHANNELS 3 Xrotation Yrotation Zrotation
											JOINT LeftHand
											{
												OFFSET 18.484802 0.000000 -0.000000
												CHANNELS 3 Xrotation Yrotation Zrotation
												End Site
												{
													OFFSET 0 0 0
												}
											}
										}
									}
								}
							}
						}
						JOINT RightShoulder_virtual
						{
							OFFSET 0.000000 0.000000 0.000000
							CHANNELS 3 Xrotation Yrotation Zrotation
							JOINT RightShoulder
							{
								OFFSET -2.196100 4.412496 0.070690
								CHANNELS 3 Xrotation Yrotation Zrotation
								JOINT RightShoulder_split
								{
									OFFSET -2.196100 4.412496 0.070690
									CHANNELS 3 Xrotation Yrotation Zrotation
									JOINT RightArm
									{
										OFFSET -8.771282 -2.981682 -0.094208
										CHANNELS 3 Xrotation Yrotation Zrotation
										JOINT RightForeArm
										{
											OFFSET -8.494598 0.000000 0.000000
											CHANNELS 3 Xrotation Yrotation Zrotation
											JOINT RightHand
											{
												OFFSET -18.483803 0.000000 0.000001
												CHANNELS 3 Xrotation Yrotation Zrotation
												End Site
												{
													OFFSET 0 0 0
												}
											}
										}
									}
								}
							}
						}
					}
				}
			}
		}
	}
}
MOTION
Frames: 5
Frame Time: 0.03333333
-1.027451 32.584473 1.286968 0.000000 0.000000 0.000000 -7.029758 7.956183 -0.400718 -11.531187 13.089229 16.500373 27.942321 -0.173001 4.468935 -11.786263 -10.687895 -15.159006 -1.420580 0.477822 -1.120385 0.000000 0.000000 0.000000 -7.156141 9.809659 -0.397964 11.974661 -8.569968 6.732069 19.170857 -7.394627 -7.949733 -21.273333 -16.161817 4.280841 -6.626212 -0.713336 -0.690054 0.000000 0.000000 0.000000 -6.657534 7.629915 -0.863103 2.549142 0.487464 4.077047 2.262951 0.478070 2.892286 0.859444 -1.434063 -0.103069 0.000000 0.000000 0.000000 1.714550 0.760656 2.860496 12.417485 -0.812189 -1.292609 3.201934 -10.546760 -7.644829 0.000000 0.000000 0.000000 1.420834 0.783079 2.681908 2.169410 -14.441911 -11.826761 -0.509102 0.207619 -2.479926 4.067638 -3.283077 -69.957127 -1.729329 -1.125090 -0.305406 0.000000 0.000000 0.000000 1.419244 0.527293 2.884666 1.911735 8.924206 18.969710 0.989258 3.994567 -2.062454 24.908617 7.117703 59.002999 0.782755 6.992852 0.612715 0.000000 0.000000 0.000000 
-0.973076 32.646038 1.296230 0.000000 0.000000 0.000000 -6.654652 7.355158 -0.467981 -11.427759 13.406684 16.198579 27.271615 -0.502078 4.334461 -11.654309 -9.749283 -14.916785 -1.293778 0.454694 -1.158880 0.000000 0.000000 0.000000 -6.797488 9.080645 -0.490655 11.646745 -8.571184 6.502262 18.683293 -7.276192 -7.917591 -20.846198 -15.388597 4.425194 -6.636420 -0.639956 -0.689602 0.000000 0.000000 0.000000 -6.184963 7.172006 -0.913509 2.467427 0.372919 4.078636 2.344355 0.346526 2.877608 0.885107 -1.453019 -0.105544 0.000000 0.000000 0.000000 1.834487 0.590121 2.844910 12.215086 -0.569148 -1.186193 2.372028 -9.422386 -7.054025 0.000000 0.000000 0.000000 1.452613 0.609690 2.632085 2.173449 -14.655226 -12.135888 -0.566488 0.345456 -2.264775 4.444470 -2.197242 -70.173008 -1.647763 -0.895692 -0.204775 0.000000 0.000000 0.000000 1.527791 0.364351 2.893330 1.984005 8.241870 18.764147 0.677830 3.859946 -2.172613 26.926738 7.206409 58.131337 0.784307 6.849765 0.529746 0.000000 0.000000 0.000000 
-0.926365 32.706375 1.292015 0.000000 0.000000 0.000000 -6.269290 6.495783 -0.610466 -11.268168 13.668721 15.998349 26.582461 -0.768505 4.160728 -11.618177 -8.546695 -14.661612 -1.162754 0.432435 -1.216823 0.000000 0.000000 0.000000 -6.414818 8.133615 -0.652890 11.310957 -8.639547 6.288746 18.156074 -7.148062 -7.786837 -20.461075 -14.368961 4.531303 -6.603988 -0.564130 -0.655410 0.000000 0.000000 0.000000 -5.701481 6.485726 -1.036632 2.415914 0.288487 4.084161 2.448636 0.240339 2.878836 0.920103 -1.317416 -0.094447 0.000000 0.000000 0.000000 1.947165 0.436536 2.853082 11.946214 -0.312510 -1.062509 1.555359 -8.203288 -6.458035 0.000000 0.000000 0.000000 1.488430 0.461604 2.591193 2.181476 -14.817827 -12.380122 -0.706390 0.554128 -2.076204 4.812238 -1.339890 -70.477519 -1.593881 -0.659421 -0.143349 0.000000 0.000000 0.000000 1.637670 0.229910 2.912600 2.024931 7.828642 18.621763 0.345946 3.661673 -2.176349 27.507981 6.621044 57.566767 0.675599 6.247142 0.537584 0.000000 0.000000 0.000000 
-0.890554 32.763142 1.269608 0.000000 0.000000 0.000000 -5.881981 5.468002 -0.816264 -11.093060 13.842386 15.896150 25.906691 -1.001492 3.958945 -11.656715 -7.148727 -14.415408 -1.064428 0.411002 -1.286227 0.000000 0.000000 0.000000 -6.018177 7.047342 -0.871320 10.977983 -8.771208 6.105291 17.582099 -7.043135 -7.559442 -20.094664 -13.160922 4.588446 -6.529979 -0.503117 -0.589804 0.000000 0.000000 0.000000 -5.232827 5.598251 -1.231497 2.385571 0.233310 4.091222 2.572889 0.158747 2.890796 0.937067 -1.113939 -0.072007 0.000000 0.000000 0.000000 2.051814 0.313630 2.877214 11.594430 -0.049726 -0.915770 0.748927 -6.910134 -5.859272 0.000000 0.000000 0.000000 1.533754 0.345619 2.561796 2.201590 -14.925804 -12.518058 -0.897950 0.704773 -1.908313 5.229198 -0.879544 -70.810921 -1.571901 -0.510982 -0.137484 0.000000 0.000000 0.000000 1.731283 0.134262 2.939898 2.027775 7.683470 18.582308 0.160266 3.436093 -2.136509 26.715134 5.644196 57.298436 0.542940 5.408065 0.600623 0.000000 0.000000 0.000000 
-0.864014 32.818970 1.232864 0.000000 0.000000 0.000000 -5.500524 4.347857 -1.059555 -10.917648 13.936554 15.878948 25.260842 -1.242945 3.734918 -11.706856 -5.661826 -14.224311 -1.013971 0.390426 -1.343338 0.000000 0.000000 0.000000 -5.623652 5.859814 -1.122164 10.631909 -8.951794 5.946381 16.956831 -6.964925 -7.244274 -19.714223 -11.838828 4.638537 -6.468954 -0.469925 -0.504362 0.000000 0.000000 0.000000 -4.807803 4.563997 -1.477648 2.369620 0.199188 4.094339 2.710641 0.093658 2.903678 0.936126 -0.938388 -0.071046 0.000000 0.000000 0.000000 2.149816 0.224920 2.902839 11.193831 0.205548 -0.737955 -0.024802 -5.589697 -5.256096 0.000000 0.000000 0.000000 1.596641 0.262376 2.543992 2.243617 -14.968848 -12.535261 -1.117814 0.728844 -1.783370 5.696263 -0.863499 -71.124051 -1.594867 -0.528552 -0.181116 0.000000 0.000000 0.000000 1.816376 0.072073 2.958637 1.990627 7.718226 18.594437 0.211355 3.258308 -2.078026 24.966298 4.737070 57.158763 0.430693 4.786635 0.675376 0.000000 0.000000 0.000000 
